  0
SECTION
  2
HEADER
  9
$ACADVER
  1
AC1024
  9
$ACADMAINTVER
 70
6
  9
$DWGCODEPAGE
  3
ANSI_1252
  9
$LASTSAVEDBY
  1
ezdxf
  9
$INSBASE
 10
0.0
 20
0.0
 30
0.0
  9
$EXTMIN
 10
1e+20
 20
1e+20
 30
1e+20
  9
$EXTMAX
 10
-1e+20
 20
-1e+20
 30
-1e+20
  9
$LIMMIN
 10
0.0
 20
0.0
  9
$LIMMAX
 10
420.0
 20
297.0
  9
$ORTHOMODE
 70
0
  9
$REGENMODE
 70
1
  9
$FILLMODE
 70
1
  9
$QTEXTMODE
 70
0
  9
$MIRRTEXT
 70
1
  9
$LTSCALE
 40
1.0
  9
$ATTMODE
 70
1
  9
$TEXTSIZE
 40
2.5
  9
$TRACEWID
 40
1.0
  9
$TEXTSTYLE
  7
OpenSans
  9
$CLAYER
  8
0
  9
$CELTYPE
  6
ByLayer
  9
$CECOLOR
 62
256
  9
$CELTSCALE
 40
1.0
  9
$DISPSILH
 70
0
  9
$DIMSCALE
 40
1.0
  9
$DIMASZ
 40
0.175
  9
$DIMEXO
 40
0.125
  9
$DIMDLI
 40
3.75
  9
$DIMRND
 40
0.0
  9
$DIMDLE
 40
0.0
  9
$DIMEXE
 40
0.375
  9
$DIMTP
 40
0.0
  9
$DIMTM
 40
0.0
  9
$DIMTXT
 40
0.25
  9
$DIMCEN
 40
2.5
  9
$DIMTSZ
 40
0.0
  9
$DIMTOL
 70
0
  9
$DIMLIM
 70
0
  9
$DIMTIH
 70
0
  9
$DIMTOH
 70
0
  9
$DIMSE1
 70
0
  9
$DIMSE2
 70
0
  9
$DIMTAD
 70
1
  9
$DIMZIN
 70
12
  9
$DIMBLK
  1
ARCHTICK
  9
$DIMASO
 70
1
  9
$DIMSHO
 70
1
  9
$DIMPOST
  1

  9
$DIMAPOST
  1

  9
$DIMALT
 70
0
  9
$DIMALTD
 70
3
  9
$DIMALTF
 40
0.03937007874
  9
$DIMLFAC
 40
100.0
  9
$DIMTOFL
 70
1
  9
$DIMTVP
 40
0.0
  9
$DIMTIX
 70
0
  9
$DIMSOXD
 70
0
  9
$DIMSAH
 70
0
  9
$DIMBLK1
  1

  9
$DIMBLK2
  1

  9
$DIMSTYLE
  2
EZDXF
  9
$DIMCLRD
 70
0
  9
$DIMCLRE
 70
0
  9
$DIMCLRT
 70
0
  9
$DIMTFAC
 40
0.5
  9
$DIMGAP
 40
0.1
  9
$DIMJUST
 70
0
  9
$DIMSD1
 70
0
  9
$DIMSD2
 70
0
  9
$DIMTOLJ
 70
0
  9
$DIMTZIN
 70
8
  9
$DIMALTZ
 70
0
  9
$DIMALTTZ
 70
0
  9
$DIMUPT
 70
1
  9
$DIMDEC
 70
2
  9
$DIMTDEC
 70
2
  9
$DIMALTU
 70
2
  9
$DIMALTTD
 70
3
  9
$DIMTXSTY
  7
OpenSansCondensed-Light
  9
$DIMAUNIT
 70
0
  9
$DIMADEC
 70
2
  9
$DIMALTRND
 40
0.0
  9
$DIMAZIN
 70
3
  9
$DIMDSEP
 70
46
  9
$DIMATFIT
 70
3
  9
$DIMFRAC
 70
0
  9
$DIMLDRBLK
  1

  9
$DIMLUNIT
 70
2
  9
$DIMLWD
 70
-2
  9
$DIMLWE
 70
-2
  9
$DIMTMOVE
 70
2
  9
$DIMFXL
 40
1.0
  9
$DIMFXLON
 70
0
  9
$DIMJOGANG
 40
0.785398163397
  9
$DIMTFILL
 70
0
  9
$DIMTFILLCLR
 70
0
  9
$DIMARCSYM
 70
0
  9
$DIMLTYPE
  6

  9
$DIMLTEX1
  6

  9
$DIMLTEX2
  6

  9
$DIMTXTDIRECTION
 70
0
  9
$LUNITS
 70
2
  9
$LUPREC
 70
4
  9
$SKETCHINC
 40
1.0
  9
$FILLETRAD
 40
10.0
  9
$AUNITS
 70
0
  9
$AUPREC
 70
2
  9
$MENU
  1
.
  9
$ELEVATION
 40
0.0
  9
$PELEVATION
 40
0.0
  9
$THICKNESS
 40
0.0
  9
$LIMCHECK
 70
0
  9
$CHAMFERA
 40
0.0
  9
$CHAMFERB
 40
0.0
  9
$CHAMFERC
 40
0.0
  9
$CHAMFERD
 40
0.0
  9
$SKPOLY
 70
0
  9
$TDCREATE
 40
2461286.7560185185
  9
$TDUCREATE
 40
2458532.153996898
  9
$TDUPDATE
 40
2461286.7560185185
  9
$TDUUPDATE
 40
2458532.1544311
  9
$TDINDWG
 40
0.0
  9
$TDUSRTIMER
 40
0.0
  9
$USRTIMER
 70
1
  9
$ANGBASE
 50
0.0
  9
$ANGDIR
 70
0
  9
$PDMODE
 70
0
  9
$PDSIZE
 40
0.0
  9
$PLINEWID
 40
0.0
  9
$SPLFRAME
 70
0
  9
$SPLINETYPE
 70
6
  9
$SPLINESEGS
 70
8
  9
$HANDSEED
  5
93
  9
$SURFTAB1
 70
6
  9
$SURFTAB2
 70
6
  9
$SURFTYPE
 70
6
  9
$SURFU
 70
6
  9
$SURFV
 70
6
  9
$UCSBASE
  2

  9
$UCSNAME
  2

  9
$UCSORG
 10
0.0
 20
0.0
 30
0.0
  9
$UCSXDIR
 10
1.0
 20
0.0
 30
0.0
  9
$UCSYDIR
 10
0.0
 20
1.0
 30
0.0
  9
$UCSORTHOREF
  2

  9
$UCSORTHOVIEW
 70
0
  9
$UCSORGTOP
 10
0.0
 20
0.0
 30
0.0
  9
$UCSORGBOTTOM
 10
0.0
 20
0.0
 30
0.0
  9
$UCSORGLEFT
 10
0.0
 20
0.0
 30
0.0
  9
$UCSORGRIGHT
 10
0.0
 20
0.0
 30
0.0
  9
$UCSORGFRONT
 10
0.0
 20
0.0
 30
0.0
  9
$UCSORGBACK
 10
0.0
 20
0.0
 30
0.0
  9
$PUCSBASE
  2

  9
$PUCSNAME
  2

  9
$PUCSORG
 10
0.0
 20
0.0
 30
0.0
  9
$PUCSXDIR
 10
1.0
 20
0.0
 30
0.0
  9
$PUCSYDIR
 10
0.0
 20
1.0
 30
0.0
  9
$PUCSORTHOREF
  2

  9
$PUCSORTHOVIEW
 70
0
  9
$PUCSORGTOP
 10
0.0
 20
0.0
 30
0.0
  9
$PUCSORGBOTTOM
 10
0.0
 20
0.0
 30
0.0
  9
$PUCSORGLEFT
 10
0.0
 20
0.0
 30
0.0
  9
$PUCSORGRIGHT
 10
0.0
 20
0.0
 30
0.0
  9
$PUCSORGFRONT
 10
0.0
 20
0.0
 30
0.0
  9
$PUCSORGBACK
 10
0.0
 20
0.0
 30
0.0
  9
$USERI1
 70
0
  9
$USERI2
 70
0
  9
$USERI3
 70
0
  9
$USERI4
 70
0
  9
$USERI5
 70
0
  9
$USERR1
 40
0.0
  9
$USERR2
 40
0.0
  9
$USERR3
 40
0.0
  9
$USERR4
 40
0.0
  9
$USERR5
 40
0.0
  9
$WORLDVIEW
 70
1
  9
$SHADEDGE
 70
3
  9
$SHADEDIF
 70
70
  9
$TILEMODE
 70
1
  9
$MAXACTVP
 70
64
  9
$PINSBASE
 10
0.0
 20
0.0
 30
0.0
  9
$PLIMCHECK
 70
0
  9
$PEXTMIN
 10
1e+20
 20
1e+20
 30
1e+20
  9
$PEXTMAX
 10
-1e+20
 20
-1e+20
 30
-1e+20
  9
$PLIMMIN
 10
0.0
 20
0.0
  9
$PLIMMAX
 10
420.0
 20
297.0
  9
$UNITMODE
 70
0
  9
$VISRETAIN
 70
1
  9
$PLINEGEN
 70
0
  9
$PSLTSCALE
 70
1
  9
$TREEDEPTH
 70
3020
  9
$CMLSTYLE
  2
Standard
  9
$CMLJUST
 70
0
  9
$CMLSCALE
 40
20.0
  9
$PROXYGRAPHICS
 70
1
  9
$MEASUREMENT
 70
1
  9
$CELWEIGHT
370
-1
  9
$ENDCAPS
280
0
  9
$JOINSTYLE
280
0
  9
$LWDISPLAY
290
0
  9
$INSUNITS
 70
4
  9
$HYPERLINKBASE
  1

  9
$STYLESHEET
  1

  9
$XEDIT
290
1
  9
$CEPSNTYPE
380
0
  9
$PSTYLEMODE
290
1
  9
$FINGERPRINTGUID
  2
{9B142099-69BE-4E45-A3BB-BB308B997F53}
  9
$VERSIONGUID
  2
{EDE6861C-7B0A-4A9F-9EA6-A6255219CF87}
  9
$EXTNAMES
290
1
  9
$PSVPSCALE
 40
0.0
  9
$OLESTARTUP
290
0
  9
$SORTENTS
280
127
  9
$INDEXCTL
280
0
  9
$HIDETEXT
280
1
  9
$XCLIPFRAME
280
1
  9
$HALOGAP
280
0
  9
$OBSCOLOR
 70
257
  9
$OBSLTYPE
280
0
  9
$INTERSECTIONDISPLAY
280
0
  9
$INTERSECTIONCOLOR
 70
257
  9
$DIMASSOC
280
2
  9
$PROJECTNAME
  1

  9
$CAMERADISPLAY
290
0
  9
$LENSLENGTH
 40
50.0
  9
$CAMERAHEIGHT
 40
0.0
  9
$STEPSPERSEC
 40
24.0
  9
$STEPSIZE
 40
100.0
  9
$3DDWFPREC
 40
2.0
  9
$PSOLWIDTH
 40
0.005
  9
$PSOLHEIGHT
 40
0.08
  9
$LOFTANG1
 40
1.570796326795
  9
$LOFTANG2
 40
1.570796326795
  9
$LOFTMAG1
 40
0.0
  9
$LOFTMAG2
 40
0.0
  9
$LOFTPARAM
 70
7
  9
$LOFTNORMALS
280
1
  9
$LATITUDE
 40
37.795
  9
$LONGITUDE
 40
-122.394
  9
$NORTHDIRECTION
 40
0.0
  9
$TIMEZONE
 70
-8000
  9
$LIGHTGLYPHDISPLAY
280
1
  9
$TILEMODELIGHTSYNCH
280
1
  9
$CMATERIAL
347
20
  9
$SOLIDHIST
280
0
  9
$SHOWHIST
280
1
  9
$DWFFRAME
280
2
  9
$DGNFRAME
280
2
  9
$REALWORLDSCALE
290
1
  9
$INTERFERECOLOR
 62
256
  9
$CSHADOW
280
0
  9
$SHADOWPLANELOCATION
 40
0.0
  0
ENDSEC
  0
SECTION
  2
CLASSES
  0
CLASS
  1
ACDBDICTIONARYWDFLT
  2
AcDbDictionaryWithDefault
  3
ObjectDBX Classes
 90
0
 91
0
280
0
281
0
  0
CLASS
  1
SUN
  2
AcDbSun
  3
SCENEOE
 90
1153
 91
0
280
0
281
0
  0
CLASS
  1
VISUALSTYLE
  2
AcDbVisualStyle
  3
ObjectDBX Classes
 90
4095
 91
0
280
0
281
0
  0
CLASS
  1
MATERIAL
  2
AcDbMaterial
  3
ObjectDBX Classes
 90
1153
 91
0
280
0
281
0
  0
CLASS
  1
SCALE
  2
AcDbScale
  3
ObjectDBX Classes
 90
1153
 91
0
280
0
281
0
  0
CLASS
  1
TABLESTYLE
  2
AcDbTableStyle
  3
ObjectDBX Classes
 90
4095
 91
0
280
0
281
0
  0
CLASS
  1
MLEADERSTYLE
  2
AcDbMLeaderStyle
  3
ACDB_MLEADERSTYLE_CLASS
 90
4095
 91
0
280
0
281
0
  0
CLASS
  1
DICTIONARYVAR
  2
AcDbDictionaryVar
  3
ObjectDBX Classes
 90
0
 91
0
280
0
281
0
  0
CLASS
  1
CELLSTYLEMAP
  2
AcDbCellStyleMap
  3
ObjectDBX Classes
 90
1152
 91
0
280
0
281
0
  0
CLASS
  1
MENTALRAYRENDERSETTINGS
  2
AcDbMentalRayRenderSettings
  3
SCENEOE
 90
1024
 91
0
280
0
281
0
  0
CLASS
  1
ACDBDETAILVIEWSTYLE
  2
AcDbDetailViewStyle
  3
ObjectDBX Classes
 90
1025
 91
0
280
0
281
0
  0
CLASS
  1
ACDBSECTIONVIEWSTYLE
  2
AcDbSectionViewStyle
  3
ObjectDBX Classes
 90
1025
 91
0
280
0
281
0
  0
CLASS
  1
RASTERVARIABLES
  2
AcDbRasterVariables
  3
ISM
 90
0
 91
0
280
0
281
0
  0
CLASS
  1
LAYOUT
  2
AcDbLayout
  3
ObjectDBX Classes
 90
0
 91
0
280
0
281
0
  0
CLASS
  1
ACDBPLACEHOLDER
  2
AcDbPlaceHolder
  3
ObjectDBX Classes
 90
0
 91
0
280
0
281
0
  0
ENDSEC
  0
SECTION
  2
TABLES
  0
TABLE
  2
VPORT
  5
8
330
0
100
AcDbSymbolTable
 70
1
  0
VPORT
  5
23
330
8
100
AcDbSymbolTableRecord
100
AcDbViewportTableRecord
  2
*Active
 70
0
 10
0.0
 20
0.0
 11
1.0
 21
1.0
 12
0.0
 22
0.0
 13
0.0
 23
0.0
 14
0.5
 24
0.5
 15
0.5
 25
0.5
 16
0.0
 26
0.0
 36
1.0
 17
0.0
 27
0.0
 37
0.0
 40
1000.0
 41
1.34
 42
50.0
 43
0.0
 44
0.0
 50
0.0
 51
0.0
 71
0
 72
1000
 73
1
 74
3
 75
0
 76
0
 77
0
 78
0
281
0
 65
0
146
0.0
  0
ENDTAB
  0
TABLE
  2
LTYPE
  5
2
330
0
100
AcDbSymbolTable
 70
21
  0
LTYPE
  5
24
330
2
100
AcDbSymbolTableRecord
100
AcDbLinetypeTableRecord
  2
ByBlock
 70
0
  3

 72
65
 73
0
 40
0.0
  0
LTYPE
  5
25
330
2
100
AcDbSymbolTableRecord
100
AcDbLinetypeTableRecord
  2
ByLayer
 70
0
  3

 72
65
 73
0
 40
0.0
  0
LTYPE
  5
26
330
2
100
AcDbSymbolTableRecord
100
AcDbLinetypeTableRecord
  2
Continuous
 70
0
  3

 72
65
 73
0
 40
0.0
  0
LTYPE
  5
2F
330
2
100
AcDbSymbolTableRecord
100
AcDbLinetypeTableRecord
  2
CENTER
 70
0
  3
Center ____ _ ____ _ ____ _ ____ _ ____ _ ____
 72
65
 73
4
 40
5.08
 49
3.175
 74
0
 49
-0.635
 74
0
 49
0.635
 74
0
 49
-0.635
 74
0
  0
LTYPE
  5
30
330
2
100
AcDbSymbolTableRecord
100
AcDbLinetypeTableRecord
  2
CENTERX2
 70
0
  3
Center (2x) ________  __  ________  __  ________
 72
65
 73
4
 40
8.89
 49
6.35
 74
0
 49
-0.635
 74
0
 49
1.27
 74
0
 49
-0.635
 74
0
  0
LTYPE
  5
31
330
2
100
AcDbSymbolTableRecord
100
AcDbLinetypeTableRecord
  2
CENTER2
 70
0
  3
Center (.5x) ____ _ ____ _ ____ _ ____ _ ____
 72
65
 73
4
 40
2.54
 49
1.587
 74
0
 49
-0.318
 74
0
 49
0.318
 74
0
 49
-0.318
 74
0
  0
LTYPE
  5
32
330
2
100
AcDbSymbolTableRecord
100
AcDbLinetypeTableRecord
  2
DASHED
 70
0
  3
Dashed __ __ __ __ __ __ __ __ __ __ __ __ __ _
 72
65
 73
2
 40
1.524
 49
1.27
 74
0
 49
-0.254
 74
0
  0
LTYPE
  5
33
330
2
100
AcDbSymbolTableRecord
100
AcDbLinetypeTableRecord
  2
DASHEDX2
 70
0
  3
Dashed (2x) ____  ____  ____  ____  ____  ____
 72
65
 73
2
 40
3.048
 49
2.54
 74
0
 49
-0.508
 74
0
  0
LTYPE
  5
34
330
2
100
AcDbSymbolTableRecord
100
AcDbLinetypeTableRecord
  2
DASHED2
 70
0
  3
Dashed (.5x) _ _ _ _ _ _ _ _ _ _ _ _ _ _
 72
65
 73
2
 40
0.762
 49
0.635
 74
0
 49
-0.127
 74
0
  0
LTYPE
  5
35
330
2
100
AcDbSymbolTableRecord
100
AcDbLinetypeTableRecord
  2
PHANTOM
 70
0
  3
Phantom ______  __  __  ______  __  __  ______
 72
65
 73
6
 40
6.35
 49
3.175
 74
0
 49
-0.635
 74
0
 49
0.635
 74
0
 49
-0.635
 74
0
 49
0.635
 74
0
 49
-0.635
 74
0
  0
LTYPE
  5
36
330
2
100
AcDbSymbolTableRecord
100
AcDbLinetypeTableRecord
  2
PHANTOMX2
 70
0
  3
Phantom (2x)____________    ____    ____    ____________
 72
65
 73
6
 40
10.795
 49
6.35
 74
0
 49
-0.635
 74
0
 49
1.27
 74
0
 49
-0.635
 74
0
 49
1.27
 74
0
 49
-0.635
 74
0
  0
LTYPE
  5
37
330
2
100
AcDbSymbolTableRecord
100
AcDbLinetypeTableRecord
  2
PHANTOM2
 70
0
  3
Phantom (.5x) ___ _ _ ___ _ _ ___ _ _ ___ _ _ ___
 72
65
 73
6
 40
3.175
 49
1.587
 74
0
 49
-0.318
 74
0
 49
0.318
 74
0
 49
-0.318
 74
0
 49
0.318
 74
0
 49
-0.318
 74
0
  0
LTYPE
  5
38
330
2
100
AcDbSymbolTableRecord
100
AcDbLinetypeTableRecord
  2
DASHDOT
 70
0
  3
Dash dot __ . __ . __ . __ . __ . __ . __ . __
 72
65
 73
4
 40
3.556
 49
2.54
 74
0
 49
-0.508
 74
0
 49
0.0
 74
0
 49
-0.508
 74
0
  0
LTYPE
  5
39
330
2
100
AcDbSymbolTableRecord
100
AcDbLinetypeTableRecord
  2
DASHDOTX2
 70
0
  3
Dash dot (2x) ____  .  ____  .  ____  .  ____
 72
65
 73
4
 40
6.096
 49
5.08
 74
0
 49
-0.508
 74
0
 49
0.0
 74
0
 49
-0.508
 74
0
  0
LTYPE
  5
3A
330
2
100
AcDbSymbolTableRecord
100
AcDbLinetypeTableRecord
  2
DASHDOT2
 70
0
  3
Dash dot (.5x) _ . _ . _ . _ . _ . _ . _ . _
 72
65
 73
4
 40
1.778
 49
1.27
 74
0
 49
-0.254
 74
0
 49
0.0
 74
0
 49
-0.254
 74
0
  0
LTYPE
  5
3B
330
2
100
AcDbSymbolTableRecord
100
AcDbLinetypeTableRecord
  2
DOT
 70
0
  3
Dot .  .  .  .  .  .  .  .  .  .  .  .  .  .  .  .
 72
65
 73
2
 40
0.508
 49
0.0
 74
0
 49
-0.508
 74
0
  0
LTYPE
  5
3C
330
2
100
AcDbSymbolTableRecord
100
AcDbLinetypeTableRecord
  2
DOTX2
 70
0
  3
Dot (2x) .    .    .    .    .    .    .    . 
 72
65
 73
2
 40
1.016
 49
0.0
 74
0
 49
-1.016
 74
0
  0
LTYPE
  5
3D
330
2
100
AcDbSymbolTableRecord
100
AcDbLinetypeTableRecord
  2
DOT2
 70
0
  3
Dot (.5) . . . . . . . . . . . . . . . . . . . 
 72
65
 73
2
 40
0.254
 49
0.0
 74
0
 49
-0.254
 74
0
  0
LTYPE
  5
3E
330
2
100
AcDbSymbolTableRecord
100
AcDbLinetypeTableRecord
  2
DIVIDE
 70
0
  3
Divide __ . . __ . . __ . . __ . . __ . . __
 72
65
 73
6
 40
4.064
 49
2.54
 74
0
 49
-0.508
 74
0
 49
0.0
 74
0
 49
-0.508
 74
0
 49
0.0
 74
0
 49
-0.508
 74
0
  0
LTYPE
  5
3F
330
2
100
AcDbSymbolTableRecord
100
AcDbLinetypeTableRecord
  2
DIVIDEX2
 70
0
  3
Divide (2x) ____  . .  ____  . .  ____  . .  ____
 72
65
 73
6
 40
6.604
 49
5.08
 74
0
 49
-0.508
 74
0
 49
0.0
 74
0
 49
-0.508
 74
0
 49
0.0
 74
0
 49
-0.508
 74
0
  0
LTYPE
  5
40
330
2
100
AcDbSymbolTableRecord
100
AcDbLinetypeTableRecord
  2
DIVIDE2
 70
0
  3
Divide(.5x) _ . _ . _ . _ . _ . _ . _ . _
 72
65
 73
6
 40
2.032
 49
1.27
 74
0
 49
-0.254
 74
0
 49
0.0
 74
0
 49
-0.254
 74
0
 49
0.0
 74
0
 49
-0.254
 74
0
  0
ENDTAB
  0
TABLE
  2
LAYER
  5
1
330
0
100
AcDbSymbolTable
 70
4
  0
LAYER
  5
27
330
1
100
AcDbSymbolTableRecord
100
AcDbLayerTableRecord
  2
0
 70
0
 62
7
  6
Continuous
370
-3
390
13
347
21
  0
LAYER
  5
28
330
1
100
AcDbSymbolTableRecord
100
AcDbLayerTableRecord
  2
Defpoints
 70
0
 62
7
  6
Continuous
290
0
370
-3
390
13
347
21
  0
LAYER
  5
8A
330
1
100
AcDbSymbolTableRecord
100
AcDbLayerTableRecord
  2
PROFILE
 70
0
 62
7
  6
Continuous
370
-3
390
13
347
21
  0
LAYER
  5
8B
330
1
100
AcDbSymbolTableRecord
100
AcDbLayerTableRecord
  2
INFO
 70
0
 62
7
  6
Continuous
370
-3
390
13
347
21
  0
ENDTAB
  0
TABLE
  2
STYLE
  5
5
330
0
100
AcDbSymbolTable
 70
26
  0
STYLE
  5
29
330
5
100
AcDbSymbolTableRecord
100
AcDbTextStyleTableRecord
  2
Standard
 70
0
 40
0.0
 41
1.0
 50
0.0
 71
0
 42
2.5
  3
txt
  4

  0
STYLE
  5
41
330
5
100
AcDbSymbolTableRecord
100
AcDbTextStyleTableRecord
  2
OpenSans-Light
 70
0
 40
0.0
 41
1.0
 50
0.0
 71
0
 42
2.5
  3
OpenSans-Light.ttf
  4

  0
STYLE
  5
42
330
5
100
AcDbSymbolTableRecord
100
AcDbTextStyleTableRecord
  2
OpenSans-Light-Italic
 70
0
 40
0.0
 41
1.0
 50
0.0
 71
0
 42
2.5
  3
OpenSans-LightItalic.ttf
  4

  0
STYLE
  5
43
330
5
100
AcDbSymbolTableRecord
100
AcDbTextStyleTableRecord
  2
OpenSans
 70
0
 40
0.0
 41
1.0
 50
0.0
 71
0
 42
2.5
  3
OpenSans-Regular.ttf
  4

  0
STYLE
  5
44
330
5
100
AcDbSymbolTableRecord
100
AcDbTextStyleTableRecord
  2
OpenSans-Italic
 70
0
 40
0.0
 41
1.0
 50
0.0
 71
0
 42
2.5
  3
OpenSans-Italic.ttf
  4

  0
STYLE
  5
45
330
5
100
AcDbSymbolTableRecord
100
AcDbTextStyleTableRecord
  2
OpenSans-SemiBold
 70
0
 40
0.0
 41
1.0
 50
0.0
 71
0
 42
2.5
  3
OpenSans-SemiBold.ttf
  4

  0
STYLE
  5
46
330
5
100
AcDbSymbolTableRecord
100
AcDbTextStyleTableRecord
  2
OpenSans-SemiBoldItalic
 70
0
 40
0.0
 41
1.0
 50
0.0
 71
0
 42
2.5
  3
OpenSans-SemiBoldItalic.ttf
  4

  0
STYLE
  5
47
330
5
100
AcDbSymbolTableRecord
100
AcDbTextStyleTableRecord
  2
OpenSans-Bold
 70
0
 40
0.0
 41
1.0
 50
0.0
 71
0
 42
2.5
  3
OpenSans-Bold.ttf
  4

  0
STYLE
  5
48
330
5
100
AcDbSymbolTableRecord
100
AcDbTextStyleTableRecord
  2
OpenSans-BoldItalic
 70
0
 40
0.0
 41
1.0
 50
0.0
 71
0
 42
2.5
  3
OpenSans-BoldItalic.ttf
  4

  0
STYLE
  5
49
330
5
100
AcDbSymbolTableRecord
100
AcDbTextStyleTableRecord
  2
OpenSans-ExtraBold
 70
0
 40
0.0
 41
1.0
 50
0.0
 71
0
 42
2.5
  3
OpenSans-ExtraBold.ttf
  4

  0
STYLE
  5
4A
330
5
100
AcDbSymbolTableRecord
100
AcDbTextStyleTableRecord
  2
OpenSans-ExtraBoldItalic
 70
0
 40
0.0
 41
1.0
 50
0.0
 71
0
 42
2.5
  3
OpenSans-ExtraBoldItalic.ttf
  4

  0
STYLE
  5
4B
330
5
100
AcDbSymbolTableRecord
100
AcDbTextStyleTableRecord
  2
OpenSansCondensed-Bold
 70
0
 40
0.0
 41
1.0
 50
0.0
 71
0
 42
2.5
  3
OpenSansCondensed-Bold.ttf
  4

  0
STYLE
  5
4C
330
5
100
AcDbSymbolTableRecord
100
AcDbTextStyleTableRecord
  2
OpenSansCondensed-Light
 70
0
 40
0.0
 41
1.0
 50
0.0
 71
0
 42
2.5
  3
OpenSansCondensed-Light.ttf
  4

  0
STYLE
  5
4D
330
5
100
AcDbSymbolTableRecord
100
AcDbTextStyleTableRecord
  2
OpenSansCondensed-Italic
 70
0
 40
0.0
 41
1.0
 50
0.0
 71
0
 42
2.5
  3
OpenSansCondensed-LightItalic.ttf
  4

  0
STYLE
  5
4E
330
5
100
AcDbSymbolTableRecord
100
AcDbTextStyleTableRecord
  2
LiberationSans
 70
0
 40
0.0
 41
1.0
 50
0.0
 71
0
 42
2.5
  3
LiberationSans-Regular.ttf
  4

  0
STYLE
  5
4F
330
5
100
AcDbSymbolTableRecord
100
AcDbTextStyleTableRecord
  2
LiberationSans-Bold
 70
0
 40
0.0
 41
1.0
 50
0.0
 71
0
 42
2.5
  3
LiberationSans-Bold.ttf
  4

  0
STYLE
  5
50
330
5
100
AcDbSymbolTableRecord
100
AcDbTextStyleTableRecord
  2
LiberationSans-BoldItalic
 70
0
 40
0.0
 41
1.0
 50
0.0
 71
0
 42
2.5
  3
LiberationSans-BoldItalic.ttf
  4

  0
STYLE
  5
51
330
5
100
AcDbSymbolTableRecord
100
AcDbTextStyleTableRecord
  2
LiberationSans-Italic
 70
0
 40
0.0
 41
1.0
 50
0.0
 71
0
 42
2.5
  3
LiberationSans-Italic.ttf
  4

  0
STYLE
  5
52
330
5
100
AcDbSymbolTableRecord
100
AcDbTextStyleTableRecord
  2
LiberationSerif
 70
0
 40
0.0
 41
1.0
 50
0.0
 71
0
 42
2.5
  3
LiberationSerif-Regular.ttf
  4

  0
STYLE
  5
53
330
5
100
AcDbSymbolTableRecord
100
AcDbTextStyleTableRecord
  2
LiberationSerif-Bold
 70
0
 40
0.0
 41
1.0
 50
0.0
 71
0
 42
2.5
  3
LiberationSerif-Bold.ttf
  4

  0
STYLE
  5
54
330
5
100
AcDbSymbolTableRecord
100
AcDbTextStyleTableRecord
  2
LiberationSerif-BoldItalic
 70
0
 40
0.0
 41
1.0
 50
0.0
 71
0
 42
2.5
  3
LiberationSerif-BoldItalic.ttf
  4

  0
STYLE
  5
55
330
5
100
AcDbSymbolTableRecord
100
AcDbTextStyleTableRecord
  2
LiberationSerif-Italic
 70
0
 40
0.0
 41
1.0
 50
0.0
 71
0
 42
2.5
  3
LiberationSerif-Italic.ttf
  4

  0
STYLE
  5
56
330
5
100
AcDbSymbolTableRecord
100
AcDbTextStyleTableRecord
  2
LiberationMono
 70
0
 40
0.0
 41
1.0
 50
0.0
 71
0
 42
2.5
  3
LiberationMono-Regular.ttf
  4

  0
STYLE
  5
57
330
5
100
AcDbSymbolTableRecord
100
AcDbTextStyleTableRecord
  2
LiberationMono-Bold
 70
0
 40
0.0
 41
1.0
 50
0.0
 71
0
 42
2.5
  3
LiberationMono-Bold.ttf
  4

  0
STYLE
  5
58
330
5
100
AcDbSymbolTableRecord
100
AcDbTextStyleTableRecord
  2
LiberationMono-BoldItalic
 70
0
 40
0.0
 41
1.0
 50
0.0
 71
0
 42
2.5
  3
LiberationMono-BoldItalic.ttf
  4

  0
STYLE
  5
59
330
5
100
AcDbSymbolTableRecord
100
AcDbTextStyleTableRecord
  2
LiberationMono-Italic
 70
0
 40
0.0
 41
1.0
 50
0.0
 71
0
 42
2.5
  3
LiberationMono-Italic.ttf
  4

  0
ENDTAB
  0
TABLE
  2
VIEW
  5
7
330
0
100
AcDbSymbolTable
 70
0
  0
ENDTAB
  0
TABLE
  2
UCS
  5
6
330
0
100
AcDbSymbolTable
 70
0
  0
ENDTAB
  0
TABLE
  2
APPID
  5
3
330
0
100
AcDbSymbolTable
 70
3
  0
APPID
  5
2A
330
3
100
AcDbSymbolTableRecord
100
AcDbRegAppTableRecord
  2
ACAD
 70
0
  0
APPID
  5
90
330
3
100
AcDbSymbolTableRecord
100
AcDbRegAppTableRecord
  2
HATCHBACKGROUNDCOLOR
 70
0
  0
APPID
  5
91
330
3
100
AcDbSymbolTableRecord
100
AcDbRegAppTableRecord
  2
EZDXF
 70
0
  0
ENDTAB
  0
TABLE
  2
DIMSTYLE
  5
4
330
0
100
AcDbSymbolTable
 70
12
100
AcDbDimStyleTable
  0
DIMSTYLE
105
2B
330
4
100
AcDbSymbolTableRecord
100
AcDbDimStyleTableRecord
  2
Standard
 70
0
 40
1.0
 41
2.5
 42
0.625
 43
3.75
 44
1.25
 45
0.0
 46
0.0
 47
0.0
 48
0.0
 49
2.5
140
2.5
141
2.5
142
0.0
143
0.03937007874
144
1.0
145
0.0
146
1.0
147
0.625
148
0.0
 69
0
 70
0
 71
0
 72
0
 73
0
 74
0
 75
0
 76
0
 77
1
 78
8
 79
3
170
0
171
3
172
1
173
0
174
0
175
0
176
0
177
0
178
0
179
2
271
2
272
2
273
2
274
3
275
0
276
0
277
2
278
44
279
0
280
0
281
0
282
0
283
0
284
8
285
0
286
0
288
0
289
3
290
0
371
-2
372
-2
  0
DIMSTYLE
105
73
330
4
100
AcDbSymbolTableRecord
100
AcDbDimStyleTableRecord
  2
EZDXF
 70
0
 40
1.0
 41
0.175
 42
0.125
 43
3.75
 44
0.375
 45
0.0
 46
0.0
 47
0.0
 48
0.0
 49
2.5
140
0.25
141
2.5
142
0.0
143
0.03937007874
144
100.0
145
0.0
146
0.5
147
0.1
148
0.0
 69
0
 70
0
 71
0
 72
0
 73
0
 74
0
 75
0
 76
0
 77
1
 78
12
 79
3
170
0
171
3
172
1
173
0
174
0
175
0
176
0
177
0
178
0
179
2
271
2
272
2
273
2
274
3
275
0
276
0
277
2
278
46
279
2
280
0
281
0
282
0
283
0
284
8
285
0
286
0
288
1
289
3
290
0
340
4C
342
74
371
-2
372
-2
  0
DIMSTYLE
105
7C
330
4
100
AcDbSymbolTableRecord
100
AcDbDimStyleTableRecord
  2
EZ_M_100_H25_CM
 70
0
 40
1.0
 41
0.25
 42
0.125
 43
3.75
 44
0.375
 45
0.0
 46
0.0
 47
0.0
 48
0.0
 49
2.5
140
0.25
141
2.5
142
0.125
143
0.03937007874
144
100.0
145
0.0
146
0.5
147
0.1
148
0.0
 69
0
 70
0
 71
0
 72
0
 73
0
 74
0
 75
0
 76
0
 77
1
 78
12
 79
3
170
0
171
3
172
1
173
0
174
0
175
0
176
0
177
0
178
0
179
2
271
2
272
2
273
2
274
3
275
0
276
0
277
2
278
46
279
2
280
0
281
0
282
0
283
0
284
8
285
0
286
0
288
1
289
3
290
0
340
4C
371
-2
372
-2
  0
DIMSTYLE
105
7D
330
4
100
AcDbSymbolTableRecord
100
AcDbDimStyleTableRecord
  2
EZ_M_50_H25_CM
 70
0
 40
1.0
 41
0.125
 42
0.0625
 43
3.75
 44
0.1875
 45
0.0
 46
0.0
 47
0.0
 48
0.0
 49
2.5
140
0.125
141
2.5
142
0.0625
143
0.03937007874
144
100.0
145
0.0
146
0.5
147
0.05
148
0.0
 69
0
 70
0
 71
0
 72
0
 73
0
 74
0
 75
0
 76
0
 77
1
 78
12
 79
3
170
0
171
3
172
1
173
0
174
0
175
0
176
0
177
0
178
0
179
2
271
2
272
2
273
2
274
3
275
0
276
0
277
2
278
46
279
2
280
0
281
0
282
0
283
0
284
8
285
0
286
0
288
1
289
3
290
0
340
4C
371
-2
372
-2
  0
DIMSTYLE
105
7E
330
4
100
AcDbSymbolTableRecord
100
AcDbDimStyleTableRecord
  2
EZ_M_25_H25_CM
 70
0
 40
1.0
 41
0.0625
 42
0.03125
 43
3.75
 44
0.09375
 45
0.0
 46
0.0
 47
0.0
 48
0.0
 49
2.5
140
0.0625
141
2.5
142
0.03125
143
0.03937007874
144
100.0
145
0.0
146
0.5
147
0.025
148
0.0
 69
0
 70
0
 71
0
 72
0
 73
0
 74
0
 75
0
 76
0
 77
1
 78
12
 79
3
170
0
171
3
172
1
173
0
174
0
175
0
176
0
177
0
178
0
179
2
271
2
272
2
273
2
274
3
275
0
276
0
277
2
278
46
279
2
280
0
281
0
282
0
283
0
284
8
285
0
286
0
288
1
289
3
290
0
340
4C
371
-2
372
-2
  0
DIMSTYLE
105
7F
330
4
100
AcDbSymbolTableRecord
100
AcDbDimStyleTableRecord
  2
EZ_M_20_H25_CM
 70
0
 40
1.0
 41
0.05
 42
0.025
 43
3.75
 44
0.07500000000000001
 45
0.0
 46
0.0
 47
0.0
 48
0.0
 49
2.5
140
0.05
141
2.5
142
0.025
143
0.03937007874
144
100.0
145
0.0
146
0.5
147
0.020000000000000004
148
0.0
 69
0
 70
0
 71
0
 72
0
 73
0
 74
0
 75
0
 76
0
 77
1
 78
12
 79
3
170
0
171
3
172
1
173
0
174
0
175
0
176
0
177
0
178
0
179
2
271
2
272
2
273
2
274
3
275
0
276
0
277
2
278
46
279
2
280
0
281
0
282
0
283
0
284
8
285
0
286
0
288
1
289
3
290
0
340
4C
371
-2
372
-2
  0
DIMSTYLE
105
80
330
4
100
AcDbSymbolTableRecord
100
AcDbDimStyleTableRecord
  2
EZ_M_10_H25_CM
 70
0
 40
1.0
 41
0.025
 42
0.0125
 43
3.75
 44
0.037500000000000006
 45
0.0
 46
0.0
 47
0.0
 48
0.0
 49
2.5
140
0.025
141
2.5
142
0.0125
143
0.03937007874
144
100.0
145
0.0
146
0.5
147
0.010000000000000002
148
0.0
 69
0
 70
0
 71
0
 72
0
 73
0
 74
0
 75
0
 76
0
 77
1
 78
12
 79
3
170
0
171
3
172
1
173
0
174
0
175
0
176
0
177
0
178
0
179
2
271
2
272
2
273
2
274
3
275
0
276
0
277
2
278
46
279
2
280
0
281
0
282
0
283
0
284
8
285
0
286
0
288
1
289
3
290
0
340
4C
371
-2
372
-2
  0
DIMSTYLE
105
81
330
4
100
AcDbSymbolTableRecord
100
AcDbDimStyleTableRecord
  2
EZ_M_5_H25_CM
 70
0
 40
1.0
 41
0.0125
 42
0.00625
 43
3.75
 44
0.018750000000000003
 45
0.0
 46
0.0
 47
0.0
 48
0.0
 49
2.5
140
0.0125
141
2.5
142
0.00625
143
0.03937007874
144
100.0
145
0.0
146
0.5
147
0.005000000000000001
148
0.0
 69
0
 70
0
 71
0
 72
0
 73
0
 74
0
 75
0
 76
0
 77
1
 78
12
 79
3
170
0
171
3
172
1
173
0
174
0
175
0
176
0
177
0
178
0
179
2
271
2
272
2
273
2
274
3
275
0
276
0
277
2
278
46
279
2
280
0
281
0
282
0
283
0
284
8
285
0
286
0
288
1
289
3
290
0
340
4C
371
-2
372
-2
  0
DIMSTYLE
105
82
330
4
100
AcDbSymbolTableRecord
100
AcDbDimStyleTableRecord
  2
EZ_M_1_H25_CM
 70
0
 40
1.0
 41
0.0025
 42
0.00125
 43
3.75
 44
0.00375
 45
0.0
 46
0.0
 47
0.0
 48
0.0
 49
2.5
140
0.0025
141
2.5
142
0.00125
143
0.03937007874
144
100.0
145
0.0
146
0.5
147
0.001
148
0.0
 69
0
 70
0
 71
0
 72
0
 73
0
 74
0
 75
0
 76
0
 77
1
 78
12
 79
3
170
0
171
3
172
1
173
0
174
0
175
0
176
0
177
0
178
0
179
2
271
2
272
2
273
2
274
3
275
0
276
0
277
2
278
46
279
2
280
0
281
0
282
0
283
0
284
8
285
0
286
0
288
1
289
3
290
0
340
4C
371
-2
372
-2
  0
DIMSTYLE
105
83
330
4
100
AcDbSymbolTableRecord
100
AcDbDimStyleTableRecord
  2
EZ_RADIUS
 70
0
 40
1.0
 41
0.25
 42
0.125
 43
3.75
 44
0.375
 45
0.0
 46
0.0
 47
0.0
 48
0.0
 49
2.5
140
0.25
141
0.0
142
0.0
143
0.03937007874
144
100.0
145
0.0
146
0.5
147
0.1
148
0.0
 69
0
 70
0
 71
0
 72
0
 73
0
 74
0
 75
0
 76
0
 77
1
 78
12
 79
3
170
0
171
3
172
0
173
0
174
0
175
0
176
0
177
0
178
0
179
2
271
2
272
2
273
2
274
3
275
0
276
0
277
2
278
46
279
1
280
0
281
0
282
0
283
0
284
8
285
0
286
0
288
1
289
3
290
0
340
4C
342
84
371
-2
372
-2
  0
DIMSTYLE
105
88
330
4
100
AcDbSymbolTableRecord
100
AcDbDimStyleTableRecord
  2
EZ_RADIUS_INSIDE
 70
0
 40
1.0
 41
0.25
 42
0.125
 43
3.75
 44
0.375
 45
0.0
 46
0.0
 47
0.0
 48
0.0
 49
2.5
140
0.25
141
0.0
142
0.0
143
0.03937007874
144
100.0
145
0.0
146
0.5
147
0.1
148
0.0
 69
0
 70
0
 71
0
 72
0
 73
0
 74
0
 75
0
 76
0
 77
0
 78
12
 79
3
170
0
171
3
172
0
173
0
174
1
175
0
176
0
177
0
178
0
179
2
271
2
272
2
273
2
274
3
275
0
276
0
277
2
278
46
279
0
280
0
281
0
282
0
283
0
284
8
285
0
286
0
288
1
289
0
290
0
340
4C
342
84
371
-2
372
-2
  0
DIMSTYLE
105
89
330
4
100
AcDbSymbolTableRecord
100
AcDbDimStyleTableRecord
  2
EZ_CURVED
 70
0
 40
1.0
 41
0.25
 42
0.125
 43
3.75
 44
0.375
 45
0.0
 46
0.0
 47
0.0
 48
0.0
 49
2.5
140
0.25
141
2.5
142
0.0
143
0.03937007874
144
100.0
145
0.0
146
0.5
147
0.1
148
0.0
 69
0
 70
0
 71
0
 72
0
 73
0
 74
0
 75
0
 76
0
 77
1
 78
12
 79
2
 90
2
170
0
171
3
172
1
173
0
174
0
175
0
176
0
177
0
178
0
179
2
271
2
272
2
273
2
274
3
275
0
276
0
277
2
278
46
279
2
280
0
281
0
282
0
283
0
284
8
285
0
286
0
288
1
289
3
290
0
340
4C
371
-2
372
-2
  0
ENDTAB
  0
TABLE
  2
BLOCK_RECORD
  5
9
330
0
100
AcDbSymbolTable
 70
5
  0
BLOCK_RECORD
  5
17
330
9
100
AcDbSymbolTableRecord
100
AcDbBlockTableRecord
  2
*Model_Space
340
1A
 70
0
280
1
281
0
  0
BLOCK_RECORD
  5
1B
330
9
100
AcDbSymbolTableRecord
100
AcDbBlockTableRecord
  2
*Paper_Space
340
1E
 70
0
280
1
281
0
  0
BLOCK_RECORD
  5
74
330
9
100
AcDbSymbolTableRecord
100
AcDbBlockTableRecord
  2
_ARCHTICK
340
0
 70
0
280
1
281
0
  0
BLOCK_RECORD
  5
78
330
9
100
AcDbSymbolTableRecord
100
AcDbBlockTableRecord
  2
_CLOSEDFILLED
340
0
 70
0
280
1
281
0
  0
BLOCK_RECORD
  5
84
330
9
100
AcDbSymbolTableRecord
100
AcDbBlockTableRecord
  2
_CLOSEDBLANK
340
0
 70
0
280
1
281
0
  0
ENDTAB
  0
ENDSEC
  0
SECTION
  2
BLOCKS
  0
BLOCK
  5
18
330
17
100
AcDbEntity
  8
0
100
AcDbBlockBegin
  2
*Model_Space
 70
0
 10
0.0
 20
0.0
 30
0.0
  3
*Model_Space
  1

  0
ENDBLK
  5
19
330
17
100
AcDbEntity
  8
0
100
AcDbBlockEnd
  0
BLOCK
  5
1C
330
1B
100
AcDbEntity
  8
0
100
AcDbBlockBegin
  2
*Paper_Space
 70
0
 10
0.0
 20
0.0
 30
0.0
  3
*Paper_Space
  1

  0
ENDBLK
  5
1D
330
1B
100
AcDbEntity
  8
0
100
AcDbBlockEnd
  0
BLOCK
  5
75
330
74
100
AcDbEntity
  8
0
100
AcDbBlockBegin
  2
_ARCHTICK
 70
0
 10
0.0
 20
0.0
 30
0.0
  3
_ARCHTICK
  1

  0
LWPOLYLINE
  5
77
330
74
100
AcDbEntity
  8
0
  6
BYBLOCK
 62
0
100
AcDbPolyline
 90
2
 70
0
 43
0.15
 10
-0.5
 20
-0.5
 10
0.5
 20
0.5
  0
ENDBLK
  5
76
330
74
100
AcDbEntity
  8
0
100
AcDbBlockEnd
  0
BLOCK
  5
79
330
78
100
AcDbEntity
  8
0
100
AcDbBlockBegin
  2
_CLOSEDFILLED
 70
0
 10
0.0
 20
0.0
 30
0.0
  3
_CLOSEDFILLED
  1

  0
SOLID
  5
7B
330
78
100
AcDbEntity
  8
0
  6
BYBLOCK
 62
0
100
AcDbTrace
 10
-1.0
 20
0.16439898372402537
 30
0.0
 11
0.0
 21
0.0
 31
0.0
 12
-1.0
 22
-0.16439898372402537
 32
0.0
 13
-1.0
 23
-0.16439898372402537
 33
0.0
  0
ENDBLK
  5
7A
330
78
100
AcDbEntity
  8
0
100
AcDbBlockEnd
  0
BLOCK
  5
85
330
84
100
AcDbEntity
  8
0
100
AcDbBlockBegin
  2
_CLOSEDBLANK
 70
0
 10
0.0
 20
0.0
 30
0.0
  3
_CLOSEDBLANK
  1

  0
LWPOLYLINE
  5
87
330
84
100
AcDbEntity
  8
0
  6
BYBLOCK
 62
0
100
AcDbPolyline
 90
3
 70
1
 10
-1.0
 20
0.16439898372402537
 10
0.0
 20
0.0
 10
-1.0
 20
-0.16439898372402537
  0
ENDBLK
  5
86
330
84
100
AcDbEntity
  8
0
100
AcDbBlockEnd
  0
ENDSEC
  0
SECTION
  2
ENTITIES
  0
LWPOLYLINE
  5
8C
330
17
100
AcDbEntity
  8
PROFILE
100
AcDbPolyline
 90
268
 70
1
 10
0.04229376878821972
 20
62.80624665050628
 10
0.0
 20
62.72165911292984
 10
0.04229376878821972
 20
54.60125550559166
 10
0.12688130636465916
 20
54.55896173680344
 10
1.7340445203170085
 20
54.55896173680344
 10
2.0723946706227663
 20
54.38978666165056
 10
2.1569822081992056
 20
54.17831781770946
 10
2.1569822081992056
 20
40.85578064942025
 10
1.8609258266816677
 20
40.559724267902716
 10
0.12688130636465916
 20
40.559724267902716
 10
0.04229376878821972
 20
40.51743049911449
 10
0.04229376878821972
 20
22.62716630169755
 10
0.12688130636465916
 20
22.58487253290933
 10
1.7340445203170085
 20
22.58487253290933
 10
1.9032195954698874
 20
22.54257876412111
 10
2.114688439410986
 20
22.331109920180012
 10
2.1569822081992056
 20
22.20422861381535
 10
2.1569822081992056
 20
8.881691445526142
 10
1.8609258266816677
 20
8.585635064008603
 10
0.12688130636465916
 20
8.585635064008603
 10
0.04229376878821972
 20
8.543341295220385
 10
0.0
 20
0.4229376878821972
 10
0.12688130636465916
 20
0.2114688439410986
 10
0.5075252254586367
 20
0.04229376878821972
 10
3.2143264279046986
 20
0.04229376878821972
 10
3.468089040634017
 20
0.16917507515287888
 10
3.637264115786896
 20
0.33835015030575777
 10
3.6795578845751153
 20
0.46523145667041693
 10
3.637264115786896
 20
2.4530385897167437
 10
3.5526765782104563
 20
2.4953323585049634
 10
2.7913887400225015
 20
2.4953323585049634
 10
2.706801202446062
 20
2.4530385897167437
 10
2.664507433657842
 20
1.353400601223031
 10
2.4530385897167437
 20
1.1419317572819325
 10
2.3261572833520843
 20
1.0996379884937126
 10
1.52257567637591
 20
1.0996379884937126
 10
1.1842255260701522
 20
1.4379881387994704
 10
1.1842255260701522
 20
6.724709237326936
 10
1.52257567637591
 20
7.063059387632693
 10
2.3261572833520843
 20
7.063059387632693
 10
2.4953323585049634
 20
6.978471850056253
 10
2.664507433657842
 20
6.767003006115155
 10
2.706801202446062
 20
5.709658786409662
 10
2.7913887400225015
 20
5.667365017621442
 10
3.5526765782104563
 20
5.667365017621442
 10
3.637264115786896
 20
5.709658786409662
 10
3.7218516533633355
 20
19.53972118015751
 10
4.948370948221708
 20
19.53972118015751
 10
5.159839792162805
 20
19.70889625531039
 10
5.159839792162805
 20
20.004952636827927
 10
5.075252254586366
 20
20.08954017440437
 10
4.187083110033752
 20
20.427890324710123
 10
3.8487329597279945
 20
20.72394670622766
 10
3.764145422151555
 20
20.977709318956983
 10
3.6795578845751153
 20
21.062296856533422
 10
3.6795578845751153
 20
22.20422861381535
 10
3.975614266092654
 20
22.54257876412111
 10
4.1447893412455326
 20
22.58487253290933
 10
32.8199645796585
 20
22.58487253290933
 10
32.94684588602316
 20
22.500284995332887
 10
32.989139654811375
 20
22.246522382603573
 10
32.693083273293844
 20
21.823584694721372
 10
32.35473312298809
 20
21.231471931686297
 10
32.35473312298809
 20
21.146884394109858
 10
32.22785181662342
 20
21.0200030877452
 10
32.1855580478352
 20
20.85082801259232
 10
31.974089203894106
 20
20.597065399863002
 10
31.974089203894106
 20
20.512477862286563
 10
32.989139654811375
 20
19.45513364258107
 10
33.15831472996426
 20
19.37054610500463
 10
34.80777171270483
 20
19.37054610500463
 10
34.89235925028127
 20
19.41283987379285
 10
34.97694678785771
 20
22.58487253290933
 10
45.804151597641955
 20
22.58487253290933
 10
46.05791421037127
 20
22.79634137685043
 10
46.10020797915949
 20
22.923222683215087
 10
46.10020797915949
 20
23.72680429019126
 10
46.43855812946525
 20
24.06515444049702
 10
46.94608335492389
 20
24.06515444049702
 10
47.24213973644142
 20
23.8113918277677
 10
47.28443350522964
 20
23.72680429019126
 10
47.28443350522964
 20
22.965516452003307
 10
47.36902104280609
 20
22.880928914426867
 10
47.36902104280609
 20
22.79634137685043
 10
47.6227836555354
 20
22.58487253290933
 10
58.74604484683719
 20
22.58487253290933
 10
58.872926153201846
 20
22.54257876412111
 10
59.084394997142944
 20
22.37340368896823
 10
59.21127630350761
 20
22.119641076238914
 10
59.21127630350761
 20
20.977709318956983
 10
59.084394997142944
 20
20.766240475015884
 10
58.830632384413626
 20
20.597065399863002
 10
57.81558193349636
 20
20.597065399863002
 10
57.730994395919915
 20
20.554771631074782
 10
57.730994395919915
 20
19.58201494894573
 10
57.81558193349636
 20
19.53972118015751
 10
59.761095297754466
 20
19.53972118015751
 10
60.057151679271996
 20
19.70889625531039
 10
60.18403298563666
 20
19.878071330463268
 10
60.18403298563666
 20
22.161934845027133
 10
60.22632675442488
 20
22.288816151391792
 10
60.60697067351886
 20
22.58487253290933
 10
75.79043366848974
 20
22.58487253290933
 10
75.91731497485439
 20
22.54257876412111
 10
76.1287838187955
 20
22.37340368896823
 10
76.21337135637194
 20
22.20422861381535
 10
76.25566512516015
 20
5.709658786409662
 10
76.34025266273659
 20
5.667365017621442
 10
77.10154050092454
 20
5.667365017621442
 10
77.18612803850098
 20
5.709658786409662
 10
77.2284218072892
 20
6.767003006115155
 10
77.39759688244209
 20
6.978471850056253
 10
77.56677195759497
 20
7.063059387632693
 10
78.37035356457113
 20
7.063059387632693
 10
78.4972348709358
 20
7.020765618844473
 10
78.70870371487689
 20
6.724709237326936
 10
78.70870371487689
 20
1.3956943700112507
 10
78.41264733335936
 20
1.0996379884937126
 10
77.56677195759497
 20
1.0996379884937126
 10
77.2284218072892
 20
1.3956943700112507
 10
77.18612803850098
 20
2.4530385897167437
 10
77.10154050092454
 20
2.4953323585049634
 10
76.34025266273659
 20
2.4953323585049634
 10
76.25566512516015
 20
2.4530385897167437
 10
76.21337135637194
 20
0.5075252254586367
 10
76.25566512516015
 20
0.33835015030575777
 10
76.42484020031303
 20
0.16917507515287888
 10
76.72089658183057
 20
0.04229376878821972
 10
79.42769778427663
 20
0.04229376878821972
 10
79.85063547215883
 20
0.29605638151753805
 10
79.93522300973527
 20
1.0996379884937126
 10
79.93522300973527
 20
7.063059387632693
 10
79.85063547215883
 20
8.543341295220385
 10
79.76604793458239
 20
8.585635064008603
 10
78.0742971830536
 20
8.585635064008603
 10
77.8628283391125
 20
8.712516370373262
 10
77.73594703274784
 20
8.92398521431436
 10
77.73594703274784
 20
22.20422861381535
 10
77.8628283391125
 20
22.41569745775645
 10
78.15888472063004
 20
22.58487253290933
 10
79.76604793458239
 20
22.58487253290933
 10
79.85063547215883
 20
22.62716630169755
 10
79.93522300973527
 20
24.14974197807346
 10
79.89292924094704
 20
24.953323585049635
 10
79.93522300973527
 20
25.122498660202513
 10
79.93522300973527
 20
31.889501666317667
 10
79.85063547215883
 20
40.51743049911449
 10
79.76604793458239
 20
40.559724267902716
 10
78.0742971830536
 20
40.559724267902716
 10
77.90512210790072
 20
40.64431180547915
 10
77.73594703274784
 20
40.898074418208466
 10
77.73594703274784
 20
54.17831781770946
 10
77.8628283391125
 20
54.38978666165056
 10
78.03200341426539
 20
54.51666796801522
 10
78.20117848941825
 20
54.55896173680344
 10
79.76604793458239
 20
54.55896173680344
 10
79.85063547215883
 20
54.60125550559166
 10
79.89292924094704
 20
62.72165911292984
 10
79.68146039700595
 20
62.97542172565916
 10
79.59687285942951
 20
63.01771549444739
 10
76.5940152754659
 20
63.01771549444739
 10
76.42484020031303
 20
62.93312795687094
 10
76.21337135637194
 20
62.63707157535341
 10
76.25566512516015
 20
60.6915582110953
 10
76.34025266273659
 20
60.64926444230707
 10
77.10154050092454
 20
60.64926444230707
 10
77.18612803850098
 20
60.6915582110953
 10
77.2284218072892
 20
61.66431489322435
 10
77.31300934486565
 20
61.83348996837723
 10
77.52447818880674
 20
62.00266504353011
 10
77.6513594951714
 20
62.04495881231833
 10
78.32805979578292
 20
62.04495881231833
 10
78.58182240851224
 20
61.87578373716545
 10
78.70870371487689
 20
61.66431489322435
 10
78.70870371487689
 20
56.377593794696885
 10
78.62411617730045
 20
56.20841871954401
 10
78.37035356457113
 20
56.03924364439113
 10
77.60906572638318
 20
56.03924364439113
 10
77.48218442001853
 20
56.08153741317935
 10
77.2284218072892
 20
56.377593794696885
 10
77.18612803850098
 20
57.392644245614164
 10
77.10154050092454
 20
57.43493801440238
 10
76.34025266273659
 20
57.43493801440238
 10
76.25566512516015
 20
57.392644245614164
 10
76.21337135637194
 20
40.85578064942025
 10
76.04419628121904
 20
40.64431180547915
 10
75.91731497485439
 20
40.559724267902716
 10
60.56467690473064
 20
40.559724267902716
 10
60.43779559836597
 20
40.60201803669093
 10
60.18403298563666
 20
40.94036818699669
 10
60.18403298563666
 20
43.22423170156055
 10
60.14173921684844
 20
43.308819239136994
 10
59.88797660411912
 20
43.52028808307809
 10
57.81558193349636
 20
43.52028808307809
 10
57.730994395919915
 20
43.47799431428987
 10
57.730994395919915
 20
42.58982516973726
 10
57.81558193349636
 20
42.54753140094904
 10
58.78833861562541
 20
42.54753140094904
 10
58.915219921990065
 20
42.50523763216082
 10
59.12668876593116
 20
42.293768788219715
 10
59.12668876593116
 20
42.209181250643276
 10
59.21127630350761
 20
42.124593713066844
 10
59.21127630350761
 20
40.94036818699669
 10
59.042101228354724
 20
40.68660557426737
 10
58.830632384413626
 20
40.559724267902716
 10
47.70737119311184
 20
40.559724267902716
 10
47.45360858038252
 20
40.43284296153805
 10
47.28443350522964
 20
40.17908034880874
 10
47.28443350522964
 20
39.41779251062078
 10
47.24213973644142
 20
39.29091120425612
 10
47.072964661288545
 20
39.12173612910324
 10
46.861495817347446
 20
39.0371485915268
 10
46.52314566704169
 20
39.0371485915268
 10
46.18479551673594
 20
39.2486174354679
 10
46.10020797915949
 20
39.41779251062078
 10
46.10020797915949
 20
40.22137411759695
 10
45.931032904006614
 20
40.43284296153805
 10
45.719564060065515
 20
40.559724267902716
 10
34.934653019069486
 20
40.60201803669093
 10
34.89235925028127
 20
43.73175692701919
 10
34.80777171270483
 20
43.77405069580741
 10
33.15831472996426
 20
43.77405069580741
 10
31.974089203894106
 20
42.63211893852547
 10
31.974089203894106
 20
42.54753140094904
 10
32.14326427904699
 20
42.33606255700794
 10
32.1855580478352
 20
42.16688748185506
 10
32.31243935419987
 20
42.0400061754904
 10
32.3970268917763
 20
41.786243562761086
 10
32.777670810870276
 20
41.109543262149565
 10
32.94684588602316
 20
40.94036818699669
 10
32.989139654811375
 20
40.81348688063203
 10
32.94684588602316
 20
40.60201803669093
 10
4.017908034880874
 20
40.559724267902716
 10
3.933320497304434
 20
40.60201803669093
 10
3.6795578845751153
 20
40.898074418208466
 10
3.6795578845751153
 20
42.0400061754904
 10
3.806439190939775
 20
42.33606255700794
 10
4.1447893412455326
 20
42.67441270731369
 10
4.3985519539748505
 20
42.80129401367835
 10
4.990664717009927
 20
42.97046908883124
 10
5.159839792162805
 20
43.097350395195896
 10
5.117546023374587
 20
43.47799431428987
 10
5.032958485798146
 20
43.52028808307809
 10
3.6795578845751153
 20
43.56258185186631
 10
3.637264115786896
 20
57.392644245614164
 10
3.5526765782104563
 20
57.43493801440238
 10
2.7913887400225015
 20
57.43493801440238
 10
2.706801202446062
 20
57.392644245614164
 10
2.664507433657842
 20
56.335300025908666
 10
2.4953323585049634
 20
56.12383118196757
 10
2.283863514563865
 20
56.03924364439113
 10
1.5648694451641296
 20
56.03924364439113
 10
1.4379881387994704
 20
56.08153741317935
 10
1.2265192948583719
 20
56.293006257120446
 10
1.1842255260701522
 20
56.419887563485105
 10
1.1842255260701522
 20
61.66431489322435
 10
1.5648694451641296
 20
62.04495881231833
 10
2.283863514563865
 20
62.04495881231833
 10
2.537626127293183
 20
61.87578373716545
 10
2.664507433657842
 20
61.70660866201257
 10
2.706801202446062
 20
60.6915582110953
 10
2.7913887400225015
 20
60.64926444230707
 10
3.5526765782104563
 20
60.64926444230707
 10
3.637264115786896
 20
60.6915582110953
 10
3.6795578845751153
 20
62.63707157535341
 10
3.5103828094222367
 20
62.93312795687094
 10
3.2989139654811384
 20
63.01771549444739
 10
0.29605638151753805
 20
63.01771549444739
  0
LWPOLYLINE
  5
8D
330
17
100
AcDbEntity
  8
PROFILE
100
AcDbPolyline
 90
303
 70
1
 10
1.4802819075876903
 20
38.6142109036446
 10
1.5648694451641296
 20
38.8256797475857
 10
1.818632057893448
 20
39.0371485915268
 10
16.70603867134679
 20
39.0371485915268
 10
16.917507515287888
 20
38.86797351637392
 10
17.002095052864327
 20
38.698798441221044
 10
17.002095052864327
 20
38.445035828491726
 10
16.917507515287888
 20
38.10668567818597
 10
16.832919977711448
 20
38.02209814060952
 10
16.74833244013501
 20
37.599160452727325
 10
16.74833244013501
 20
36.49952246423362
 10
16.959801284076107
 20
35.69594085725744
 10
17.128976359228986
 20
35.44217824452812
 10
17.171270128017206
 20
35.273003169375244
 10
17.594207815899402
 20
34.72318417512839
 10
17.89026419741694
 20
34.46942156239907
 10
18.27090811651092
 20
34.34254025603441
 10
18.693845804393113
 20
34.51171533118729
 10
18.905314648334212
 20
34.72318417512839
 10
18.947608417122435
 20
35.019240556645926
 10
19.032195954698874
 20
35.103828094222365
 10
18.905314648334212
 20
35.52676578210457
 10
18.524670729240235
 20
35.949703469986765
 10
18.48237696045202
 20
36.118878545139644
 10
18.313201885299137
 20
36.37264115786896
 10
18.27090811651092
 20
36.79557884575115
 10
18.18632057893448
 20
36.96475392090404
 10
18.18632057893448
 20
37.176222764845136
 10
18.27090811651092
 20
37.345397839998014
 10
18.35549565408736
 20
37.810629296668424
 10
18.4400831916638
 20
37.89521683424487
 10
18.4400831916638
 20
38.02209814060952
 10
18.693845804393113
 20
38.360448290915286
 10
19.074489723487094
 20
38.698798441221044
 10
19.20137102985175
 20
38.74109221000926
 10
19.243664798639973
 20
38.8256797475857
 10
19.835777561675048
 20
39.0371485915268
 10
20.597065399863002
 20
39.0371485915268
 10
21.18917816289808
 20
38.8256797475857
 10
21.738997157144937
 20
38.360448290915286
 10
22.035053538662474
 20
37.93751060303309
 10
22.161934845027133
 20
37.345397839998014
 10
22.246522382603573
 20
37.21851653363335
 10
22.246522382603573
 20
36.83787261453937
 10
22.161934845027133
 20
36.75328507696294
 10
22.119641076238914
 20
36.37264115786896
 10
21.950466001086035
 20
36.118878545139644
 10
21.90817223229781
 20
35.949703469986765
 10
21.527528313203835
 20
35.52676578210457
 10
21.4429407756274
 20
35.103828094222365
 10
21.527528313203835
 20
34.72318417512839
 10
21.738997157144937
 20
34.51171533118729
 10
21.90817223229781
 20
34.42712779361085
 10
22.077347307450694
 20
34.42712779361085
 10
22.20422861381535
 20
34.34254025603441
 10
22.331109920180012
 20
34.42712779361085
 10
22.45799122654467
 20
34.42712779361085
 10
22.79634137685043
 20
34.63859663755195
 10
22.838635145638648
 20
34.765477943916615
 10
23.261572833520844
 20
35.273003169375244
 10
23.599922983826605
 20
36.07658477635142
 10
23.684510521403045
 20
36.457228695445394
 10
23.684510521403045
 20
37.641454221515545
 10
23.599922983826605
 20
38.06439190939775
 10
23.515335446250162
 20
38.14897944697419
 10
23.430747908673723
 20
38.445035828491726
 10
23.430747908673723
 20
38.698798441221044
 10
23.72680429019126
 20
39.0371485915268
 10
44.493044765207145
 20
39.0371485915268
 10
44.74680737793646
 20
38.8256797475857
 10
44.78910114672468
 20
38.656504672432824
 10
45.000569990665774
 20
38.31815452212707
 10
45.38121390975976
 20
37.93751060303309
 10
45.846445366430174
 20
37.68374799030377
 10
46.26938305431237
 20
37.55686668393911
 10
47.115258430076764
 20
37.55686668393911
 10
47.749664961900066
 20
37.76833552788021
 10
47.791958730688286
 20
37.85292306545665
 10
48.0457213434176
 20
37.93751060303309
 10
48.55324656887624
 20
38.529623366068165
 10
48.59554033766446
 20
38.698798441221044
 10
48.891596719182
 20
39.0371485915268
 10
56.16612495075579
 20
39.0371485915268
 10
56.377593794696885
 20
38.86797351637392
 10
56.504475101061544
 20
38.656504672432824
 10
56.504475101061544
 20
38.487329597279945
 10
56.377593794696885
 20
38.23356698455063
 10
56.335300025908666
 20
37.93751060303309
 10
56.20841871954401
 20
37.599160452727325
 10
56.20841871954401
 20
36.457228695445394
 10
56.250712488332226
 20
36.245759851504296
 10
56.335300025908666
 20
36.161172313927864
 10
56.419887563485105
 20
35.73823462604567
 10
56.504475101061544
 20
35.65364708846922
 10
56.6313564074262
 20
35.31529693816346
 10
56.75823771379086
 20
35.188415631798804
 10
56.75823771379086
 20
35.103828094222365
 10
57.18117540167306
 20
34.59630286876373
 10
57.43493801440238
 20
34.42712779361085
 10
57.730994395919915
 20
34.34254025603441
 10
58.15393208380211
 20
34.51171533118729
 10
58.44998846531965
 20
34.85006548149305
 10
58.49228223410787
 20
35.14612186301059
 10
58.44998846531965
 20
35.3998844757399
 10
57.98475700864924
 20
35.949703469986765
 10
57.730994395919915
 20
36.58411000181005
 10
57.688700627131695
 20
37.303104071209795
 10
57.98475700864924
 20
38.14897944697419
 10
58.53457600289609
 20
38.698798441221044
 10
59.12668876593116
 20
38.994854822738574
 10
60.099445448060216
 20
39.0371485915268
 10
60.64926444230707
 20
38.8256797475857
 10
61.029908361401056
 20
38.487329597279945
 10
61.156789667765715
 20
38.445035828491726
 10
61.199083436553934
 20
38.31815452212707
 10
61.49513981807147
 20
37.97980437182131
 10
61.57972735564791
 20
37.599160452727325
 10
61.66431489322435
 20
37.51457291515089
 10
61.70660866201257
 20
37.26081030242157
 10
61.66431489322435
 20
36.62640377059827
 10
61.57972735564791
 20
36.49952246423362
 10
61.53743358685969
 20
36.245759851504296
 10
61.24137720534215
 20
35.73823462604567
 10
60.987614592612836
 20
35.48447201331634
 10
60.9030270550364
 20
35.188415631798804
 10
60.987614592612836
 20
34.765477943916615
 10
61.283670974130374
 20
34.46942156239907
 10
61.53743358685969
 20
34.42712779361085
 10
61.66431489322435
 20
34.34254025603441
 10
62.08725258110655
 20
34.51171533118729
 10
62.298721425047646
 20
34.68089040634017
 10
62.8485404192945
 20
35.48447201331634
 10
62.93312795687094
 20
35.8228221636221
 10
63.01771549444739
 20
35.907409701198546
 10
63.18689056960026
 20
36.54181623302184
 10
63.14459680081204
 20
37.42998537757445
 10
63.18689056960026
 20
37.55686668393911
 10
63.10230303202382
 20
37.68374799030377
 10
63.01771549444739
 20
38.23356698455063
 10
62.89083418808272
 20
38.445035828491726
 10
62.89083418808272
 20
38.698798441221044
 10
63.229184338388485
 20
39.0371485915268
 10
78.0742971830536
 20
39.0371485915268
 10
78.24347225820648
 20
38.95256105395036
 10
78.41264733335936
 20
38.74109221000926
 10
78.45494110214759
 20
38.571917134856385
 10
78.45494110214759
 20
24.530385897167434
 10
78.41264733335936
 20
24.36121082201456
 10
78.20117848941825
 20
24.14974197807346
 10
78.03200341426539
 20
24.06515444049702
 10
63.2714781071767
 20
24.06515444049702
 10
63.10230303202382
 20
24.14974197807346
 10
62.89083418808272
 20
24.40350459080278
 10
62.89083418808272
 20
24.699560972320317
 10
63.01771549444739
 20
24.91102981626141
 10
63.10230303202382
 20
25.41855504172005
 10
63.18689056960026
 20
25.58773011687293
 10
63.18689056960026
 20
26.602780567790205
 10
63.10230303202382
 20
26.72966187415486
 10
63.10230303202382
 20
26.898836949307743
 10
63.01771549444739
 20
27.19489333082528
 10
62.89083418808272
 20
27.40636217476638
 10
62.89083418808272
 20
27.533243481131034
 10
62.59477780656518
 20
28.040768706589674
 10
62.298721425047646
 20
28.33682508810721
 10
62.256427656259426
 20
28.46370639447187
 10
61.87578373716545
 20
28.71746900720119
 10
61.49513981807147
 20
28.71746900720119
 10
61.114495898977495
 20
28.506000163260094
 10
60.945320823824616
 20
28.252237550530772
 10
60.9030270550364
 20
27.998474937801454
 10
60.987614592612836
 20
27.617831018707474
 10
61.49513981807147
 20
26.94113071809596
 10
61.57972735564791
 20
26.771955642943084
 10
61.57972735564791
 20
26.602780567790205
 10
61.66431489322435
 20
26.475899261425546
 10
61.70660866201257
 20
25.841492729602248
 10
61.66431489322435
 20
25.58773011687293
 10
61.57972735564791
 20
25.503142579296494
 10
61.49513981807147
 20
25.164792428990733
 10
61.283670974130374
 20
24.826442278684976
 10
60.945320823824616
 20
24.48809212837922
 10
60.81843951745996
 20
24.445798359591
 10
60.6915582110953
 20
24.318917053226336
 10
60.18403298563666
 20
24.107448209285238
 10
59.42274514744871
 20
24.06515444049702
 10
59.042101228354724
 20
24.14974197807346
 10
58.44998846531965
 20
24.48809212837922
 10
57.90016947107279
 20
25.122498660202513
 10
57.90016947107279
 20
25.249379966567172
 10
57.773288164708134
 20
25.41855504172005
 10
57.688700627131695
 20
25.79919896081403
 10
57.688700627131695
 20
26.222136648696225
 10
57.773288164708134
 20
26.687368105366644
 10
58.11163831501389
 20
27.321774637189936
 10
58.23851962137855
 20
27.40636217476638
 10
58.44998846531965
 20
27.744712325072136
 10
58.49228223410787
 20
27.998474937801454
 10
58.36540092774322
 20
28.37911885689543
 10
58.11163831501389
 20
28.63288146962475
 10
57.90016947107279
 20
28.71746900720119
 10
57.519525551978816
 20
28.71746900720119
 10
57.223469170461286
 20
28.54829393204831
 10
57.09658786409662
 20
28.42141262568365
 10
57.0542940953084
 20
28.294531319318992
 10
56.80053148257908
 20
28.083062475377893
 10
56.75823771379086
 20
27.91388740022501
 10
56.589062638637984
 20
27.744712325072136
 10
56.504475101061544
 20
27.4486559435546
 10
56.377593794696885
 20
27.237187099613497
 10
56.335300025908666
 20
26.94113071809596
 10
56.250712488332226
 20
26.85654318051952
 10
56.20841871954401
 20
25.503142579296494
 10
56.250712488332226
 20
25.291673735355392
 10
56.335300025908666
 20
25.20708619777895
 10
56.419887563485105
 20
24.741854741108536
 10
56.504475101061544
 20
24.657267203532097
 10
56.504475101061544
 20
24.40350459080278
 10
56.419887563485105
 20
24.36121082201456
 10
56.293006257120446
 20
24.14974197807346
 10
56.12383118196757
 20
24.06515444049702
 10
48.97618425675844
 20
24.06515444049702
 10
48.76471541281734
 20
24.19203574686168
 10
48.59554033766446
 20
24.40350459080278
 10
48.468659031299794
 20
24.699560972320317
 10
48.08801511220582
 20
25.122498660202513
 10
47.58048988674719
 20
25.41855504172005
 10
47.115258430076764
 20
25.503142579296494
 10
46.98837712371211
 20
25.58773011687293
 10
46.43855812946525
 20
25.58773011687293
 10
46.31167682310059
 20
25.503142579296494
 10
45.931032904006614
 20
25.46084881050827
 10
45.50809521612442
 20
25.249379966567172
 10
45.08515752824222
 20
24.868736047473195
 10
44.78910114672468
 20
24.48809212837922
 10
44.74680737793646
 20
24.318917053226336
 10
44.535338533995365
 20
24.107448209285238
 10
44.4084572276307
 20
24.06515444049702
 10
23.8113918277677
 20
24.06515444049702
 10
23.684510521403045
 20
24.107448209285238
 10
23.430747908673723
 20
24.40350459080278
 10
23.430747908673723
 20
24.699560972320317
 10
23.515335446250162
 20
24.995617353837854
 10
23.599922983826605
 20
25.080204891414294
 10
23.684510521403045
 20
25.503142579296494
 10
23.684510521403045
 20
26.64507433657842
 10
23.430747908673723
 20
27.533243481131034
 10
23.09239775836797
 20
28.083062475377893
 10
22.58487253290933
 20
28.63288146962475
 10
22.41569745775645
 20
28.71746900720119
 10
21.992759769874255
 20
28.71746900720119
 10
21.696703388356717
 20
28.54829393204831
 10
21.527528313203835
 20
28.33682508810721
 10
21.4429407756274
 20
27.91388740022501
 10
21.527528313203835
 20
27.617831018707474
 10
21.823584694721372
 20
27.27948086840172
 10
21.90817223229781
 20
27.06801202446062
 10
22.077347307450694
 20
26.85654318051952
 10
22.161934845027133
 20
26.391311723849107
 10
22.246522382603573
 20
26.222136648696225
 10
22.246522382603573
 20
25.841492729602248
 10
22.161934845027133
 20
25.71461142323759
 10
22.161934845027133
 20
25.54543634808471
 10
22.035053538662474
 20
25.164792428990733
 10
21.90817223229781
 20
25.037911122626074
 10
21.781290925933156
 20
24.784148509896756
 10
21.231471931686297
 20
24.318917053226336
 10
20.72394670622766
 20
24.107448209285238
 10
19.962658868039707
 20
24.06515444049702
 10
19.53972118015751
 20
24.14974197807346
 10
18.989902185910655
 20
24.48809212837922
 10
18.4400831916638
 20
25.122498660202513
 10
18.4400831916638
 20
25.20708619777895
 10
18.35549565408736
 20
25.291673735355392
 10
18.18632057893448
 20
25.926080267178687
 10
18.313201885299137
 20
26.72966187415486
 10
18.609258266816674
 20
27.27948086840172
 10
18.905314648334212
 20
27.617831018707474
 10
19.032195954698874
 20
27.956181169013234
 10
18.947608417122435
 20
28.083062475377893
 10
18.905314648334212
 20
28.33682508810721
 10
18.651552035604897
 20
28.63288146962475
 10
18.4400831916638
 20
28.71746900720119
 10
18.059439272569822
 20
28.71746900720119
 10
17.763382891052284
 20
28.54829393204831
 10
17.340445203170084
 20
28.083062475377893
 10
17.298151434381865
 20
27.91388740022501
 10
17.128976359228986
 20
27.744712325072136
 10
17.08668259044077
 20
27.575537249919257
 10
17.002095052864327
 20
27.490949712342818
 10
16.917507515287888
 20
27.110305793248838
 10
16.832919977711448
 20
27.0257182556724
 10
16.74833244013501
 20
26.602780567790205
 10
16.74833244013501
 20
25.503142579296494
 10
16.832919977711448
 20
25.080204891414294
 10
16.917507515287888
 20
24.995617353837854
 10
17.002095052864327
 20
24.699560972320317
 10
17.002095052864327
 20
24.40350459080278
 10
16.66374490255857
 20
24.06515444049702
 10
1.9032195954698874
 20
24.06515444049702
 10
1.6917507515287888
 20
24.14974197807346
 10
1.5648694451641296
 20
24.27662328443812
 10
1.4802819075876903
 20
24.530385897167434
  0
TEXT
  5
8E
330
17
100
AcDbEntity
  8
INFO
100
AcDbText
 10
0.0
 20
-8.0
 30
0.0
 40
3.0
  1
80S-2202
 11
0.0
 21
-8.0
 31
0.0
100
AcDbText
  0
TEXT
  5
8F
330
17
100
AcDbEntity
  8
INFO
100
AcDbText
 10
0.0
 20
-12.0
 30
0.0
 40
1.8
  1
Source PDF page 27 | scale 0.999065
 11
0.0
 21
-12.0
 31
0.0
100
AcDbText
  0
ENDSEC
  0
SECTION
  2
OBJECTS
  0
DICTIONARY
  5
A
330
0
100
AcDbDictionary
281
1
  3
ACAD_COLOR
350
B
  3
ACAD_GROUP
350
C
  3
ACAD_LAYOUT
350
D
  3
ACAD_MATERIAL
350
E
  3
ACAD_MLEADERSTYLE
350
F
  3
ACAD_MLINESTYLE
350
10
  3
ACAD_PLOTSETTINGS
350
11
  3
ACAD_PLOTSTYLENAME
350
12
  3
ACAD_SCALELIST
350
14
  3
ACAD_TABLESTYLE
350
15
  3
ACAD_VISUALSTYLE
350
16
  3
EZDXF_META
350
2D
  0
DICTIONARY
  5
B
330
A
100
AcDbDictionary
281
1
  0
DICTIONARY
  5
C
330
A
100
AcDbDictionary
281
1
  0
DICTIONARY
  5
D
330
A
100
AcDbDictionary
281
1
  3
Model
350
1A
  3
Layout1
350
1E
  0
DICTIONARY
  5
E
330
A
100
AcDbDictionary
281
1
  3
ByBlock
350
1F
  3
ByLayer
350
20
  3
Global
350
21
  0
DICTIONARY
  5
F
330
A
100
AcDbDictionary
281
1
  3
Standard
350
2C
  0
DICTIONARY
  5
10
330
A
100
AcDbDictionary
281
1
  3
Standard
350
22
  0
DICTIONARY
  5
11
330
A
100
AcDbDictionary
281
1
  0
ACDBDICTIONARYWDFLT
  5
12
330
A
100
AcDbDictionary
281
1
  3
Normal
350
13
100
AcDbDictionaryWithDefault
340
13
  0
ACDBPLACEHOLDER
  5
13
330
12
  0
DICTIONARY
  5
14
330
A
100
AcDbDictionary
281
1
  0
DICTIONARY
  5
15
330
A
100
AcDbDictionary
281
1
  0
DICTIONARY
  5
16
330
A
100
AcDbDictionary
281
1
  3
2dWireframe
350
5A
  3
Basic
350
5B
  3
Brighten
350
5C
  3
ColorChange
350
5D
  3
Conceptual
350
5E
  3
Dim
350
5F
  3
EdgeColorOff
350
60
  3
Facepattern
350
61
  3
Flat
350
62
  3
FlatWithEdges
350
63
  3
Gouraud
350
64
  3
GouraudWithEdges
350
65
  3
Hidden
350
66
  3
JitterOff
350
67
  3
Linepattern
350
68
  3
Modeling
350
69
  3
OverhangOff
350
6A
  3
Realistic
350
6B
  3
Shaded
350
6C
  3
Shaded with edges
350
6D
  3
Shades of Gray
350
6E
  3
Sketchy
350
6F
  3
Thicken
350
70
  3
Wireframe
350
71
  3
X-Ray
350
72
  0
LAYOUT
  5
1A
330
D
100
AcDbPlotSettings
  1

  4
A3
  6

 40
7.5
 41
20.0
 42
7.5
 43
20.0
 44
420.0
 45
297.0
 46
0.0
 47
0.0
 48
0.0
 49
0.0
140
0.0
141
0.0
142
1.0
143
1.0
 70
1024
 72
1
 73
0
 74
5
  7

 75
16
 76
0
 77
2
 78
300
147
1.0
148
0.0
149
0.0
100
AcDbLayout
  1
Model
 70
1
 71
0
 10
0.0
 20
0.0
 11
420.0
 21
297.0
 12
0.0
 22
0.0
 32
0.0
 14
1e+20
 24
1e+20
 34
1e+20
 15
-1e+20
 25
-1e+20
 35
-1e+20
146
0.0
 13
0.0
 23
0.0
 33
0.0
 16
1.0
 26
0.0
 36
0.0
 17
0.0
 27
1.0
 37
0.0
 76
1
330
17
  0
LAYOUT
  5
1E
330
D
100
AcDbPlotSettings
  1

  4
A3
  6

 40
7.5
 41
20.0
 42
7.5
 43
20.0
 44
420.0
 45
297.0
 46
0.0
 47
0.0
 48
0.0
 49
0.0
140
0.0
141
0.0
142
1.0
143
1.0
 70
0
 72
1
 73
0
 74
5
  7

 75
16
 76
0
 77
2
 78
300
147
1.0
148
0.0
149
0.0
100
AcDbLayout
  1
Layout1
 70
1
 71
1
 10
0.0
 20
0.0
 11
420.0
 21
297.0
 12
0.0
 22
0.0
 32
0.0
 14
1e+20
 24
1e+20
 34
1e+20
 15
-1e+20
 25
-1e+20
 35
-1e+20
146
0.0
 13
0.0
 23
0.0
 33
0.0
 16
1.0
 26
0.0
 36
0.0
 17
0.0
 27
1.0
 37
0.0
 76
1
330
1B
  0
MATERIAL
  5
1F
102
{ACAD_REACTORS
330
E
102
}
330
E
100
AcDbMaterial
  1
ByBlock
  2

 70
0
 40
1.0
 71
1
 41
1.0
 91
-1023410177
 42
1.0
 72
1
  3

 73
1
 74
1
 75
1
 44
0.5
 73
0
 45
1.0
 46
1.0
 77
1
  4

 78
1
 79
1
170
1
 48
1.0
171
1
  6

172
1
173
1
174
1
140
1.0
141
1.0
175
1
  7

176
1
177
1
178
1
143
1.0
179
1
  8

270
1
271
1
272
1
145
1.0
146
1.0
273
1
  9

274
1
275
1
276
1
 42
1.0
 72
1
  3

 73
1
 74
1
 75
1
 94
63
  0
MATERIAL
  5
20
102
{ACAD_REACTORS
330
E
102
}
330
E
100
AcDbMaterial
  1
ByLayer
  2

 70
0
 40
1.0
 71
1
 41
1.0
 91
-1023410177
 42
1.0
 72
1
  3

 73
1
 74
1
 75
1
 44
0.5
 73
0
 45
1.0
 46
1.0
 77
1
  4

 78
1
 79
1
170
1
 48
1.0
171
1
  6

172
1
173
1
174
1
140
1.0
141
1.0
175
1
  7

176
1
177
1
178
1
143
1.0
179
1
  8

270
1
271
1
272
1
145
1.0
146
1.0
273
1
  9

274
1
275
1
276
1
 42
1.0
 72
1
  3

 73
1
 74
1
 75
1
 94
63
  0
MATERIAL
  5
21
102
{ACAD_REACTORS
330
E
102
}
330
E
100
AcDbMaterial
  1
Global
  2

 70
0
 40
1.0
 71
1
 41
1.0
 91
-1023410177
 42
1.0
 72
1
  3

 73
1
 74
1
 75
1
 44
0.5
 73
0
 45
1.0
 46
1.0
 77
1
  4

 78
1
 79
1
170
1
 48
1.0
171
1
  6

172
1
173
1
174
1
140
1.0
141
1.0
175
1
  7

176
1
177
1
178
1
143
1.0
179
1
  8

270
1
271
1
272
1
145
1.0
146
1.0
273
1
  9

274
1
275
1
276
1
 42
1.0
 72
1
  3

 73
1
 74
1
 75
1
 94
63
  0
MLINESTYLE
  5
22
102
{ACAD_REACTORS
330
10
102
}
330
10
100
AcDbMlineStyle
  2
Standard
 70
0
  3

 62
256
 51
90.0
 52
90.0
 71
2
 49
0.5
 62
256
  6
BYLAYER
 49
-0.5
 62
256
  6
BYLAYER
  0
MLEADERSTYLE
  5
2C
102
{ACAD_REACTORS
330
F
102
}
330
F
100
AcDbMLeaderStyle
179
2
170
2
171
1
172
0
 90
2
 40
0.0
 41
0.0
173
1
 91
-1056964608
 92
-2
290
1
 42
2.0
291
1
 43
8.0
  3
Standard
 44
4.0
300

342
29
174
1
175
1
176
0
178
1
 93
-1056964608
 45
4.0
292
0
297
0
 46
4.0
 94
-1056964608
 47
1.0
 49
1.0
140
1.0
294
1
141
0.0
177
0
142
1.0
295
0
296
0
143
3.75
271
0
272
9
273
9
  0
DICTIONARY
  5
2D
330
A
100
AcDbDictionary
280
1
281
1
  3
CREATED_BY_EZDXF
350
2E
  3
WRITTEN_BY_EZDXF
350
92
  0
DICTIONARYVAR
  5
2E
330
2D
100
DictionaryVariables
280
0
  1
1.4.4 @ 2026-09-02T18:08:40.592840+00:00
  0
VISUALSTYLE
  5
5A
102
{ACAD_REACTORS
330
16
102
}
330
16
100
AcDbVisualStyle
  2
2dWireframe
 70
4
 90
0
 40
0.6
 62
7
290
0
291
0
  0
VISUALSTYLE
  5
5B
102
{ACAD_REACTORS
330
16
102
}
330
16
100
AcDbVisualStyle
  2
Basic
 70
7
 90
1
 40
0.6
 62
7
290
0
291
1
  0
VISUALSTYLE
  5
5C
102
{ACAD_REACTORS
330
16
102
}
330
16
100
AcDbVisualStyle
  2
Brighten
 70
12
 90
2
 40
0.6
 62
7
290
0
291
1
  0
VISUALSTYLE
  5
5D
102
{ACAD_REACTORS
330
16
102
}
330
16
100
AcDbVisualStyle
  2
ColorChange
 70
16
 90
2
 40
0.6
 62
8
290
0
291
1
  0
VISUALSTYLE
  5
5E
102
{ACAD_REACTORS
330
16
102
}
330
16
100
AcDbVisualStyle
  2
Conceptual
 70
9
 90
3
 40
0.6
 62
7
290
0
291
0
  0
VISUALSTYLE
  5
5F
102
{ACAD_REACTORS
330
16
102
}
330
16
100
AcDbVisualStyle
  2
Dim
 70
11
 90
2
 40
0.6
 62
7
290
0
291
1
  0
VISUALSTYLE
  5
60
102
{ACAD_REACTORS
330
16
102
}
330
16
100
AcDbVisualStyle
  2
EdgeColorOff
 70
22
 90
2
 40
0.6
 62
7
290
0
291
1
  0
VISUALSTYLE
  5
61
102
{ACAD_REACTORS
330
16
102
}
330
16
100
AcDbVisualStyle
  2
Facepattern
 70
15
 90
2
 40
0.6
 62
7
290
0
291
1
  0
VISUALSTYLE
  5
62
102
{ACAD_REACTORS
330
16
102
}
330
16
100
AcDbVisualStyle
  2
Flat
 70
0
 90
2
 40
0.6
 62
7
290
0
291
1
  0
VISUALSTYLE
  5
63
102
{ACAD_REACTORS
330
16
102
}
330
16
100
AcDbVisualStyle
  2
FlatWithEdges
 70
1
 90
2
 40
0.6
 62
7
290
0
291
1
  0
VISUALSTYLE
  5
64
102
{ACAD_REACTORS
330
16
102
}
330
16
100
AcDbVisualStyle
  2
Gouraud
 70
2
 90
2
 40
0.6
 62
7
290
0
291
1
  0
VISUALSTYLE
  5
65
102
{ACAD_REACTORS
330
16
102
}
330
16
100
AcDbVisualStyle
  2
GouraudWithEdges
 70
3
 90
2
 40
0.6
 62
7
290
0
291
1
  0
VISUALSTYLE
  5
66
102
{ACAD_REACTORS
330
16
102
}
330
16
100
AcDbVisualStyle
  2
Hidden
 70
6
 90
1
 40
0.6
 62
7
290
0
291
0
  0
VISUALSTYLE
  5
67
102
{ACAD_REACTORS
330
16
102
}
330
16
100
AcDbVisualStyle
  2
JitterOff
 70
20
 90
2
 40
0.6
 62
7
290
0
291
1
  0
VISUALSTYLE
  5
68
102
{ACAD_REACTORS
330
16
102
}
330
16
100
AcDbVisualStyle
  2
Linepattern
 70
14
 90
2
 40
0.6
 62
7
290
0
291
1
  0
VISUALSTYLE
  5
69
102
{ACAD_REACTORS
330
16
102
}
330
16
100
AcDbVisualStyle
  2
Modeling
 70
10
 90
2
 40
0.6
 62
7
290
0
291
0
  0
VISUALSTYLE
  5
6A
102
{ACAD_REACTORS
330
16
102
}
330
16
100
AcDbVisualStyle
  2
OverhangOff
 70
21
 90
2
 40
0.6
 62
7
290
0
291
1
  0
VISUALSTYLE
  5
6B
102
{ACAD_REACTORS
330
16
102
}
330
16
100
AcDbVisualStyle
  2
Realistic
 70
8
 90
2
 40
0.6
 62
7
290
0
291
0
  0
VISUALSTYLE
  5
6C
102
{ACAD_REACTORS
330
16
102
}
330
16
100
AcDbVisualStyle
  2
Shaded
 70
27
 90
2
 40
0.6
 62
7
290
0
291
0
  0
VISUALSTYLE
  5
6D
102
{ACAD_REACTORS
330
16
102
}
330
16
100
AcDbVisualStyle
  2
Shaded with edges
 70
26
 90
2
 40
0.6
 62
7
290
0
291
0
  0
VISUALSTYLE
  5
6E
102
{ACAD_REACTORS
330
16
102
}
330
16
100
AcDbVisualStyle
  2
Shades of Gray
 70
23
 90
2
 40
0.6
 62
7
290
0
291
0
  0
VISUALSTYLE
  5
6F
102
{ACAD_REACTORS
330
16
102
}
330
16
100
AcDbVisualStyle
  2
Sketchy
 70
24
 90
1
 40
0.6
 62
7
290
0
291
0
  0
VISUALSTYLE
  5
70
102
{ACAD_REACTORS
330
16
102
}
330
16
100
AcDbVisualStyle
  2
Thicken
 70
13
 90
2
 40
0.6
 62
7
290
0
291
1
  0
VISUALSTYLE
  5
71
102
{ACAD_REACTORS
330
16
102
}
330
16
100
AcDbVisualStyle
  2
Wireframe
 70
5
 90
0
 40
0.6
 62
7
290
0
291
0
  0
VISUALSTYLE
  5
72
102
{ACAD_REACTORS
330
16
102
}
330
16
100
AcDbVisualStyle
  2
X-Ray
 70
25
 90
2
 40
0.5
 62
7
290
0
291
0
  0
DICTIONARYVAR
  5
92
330
2D
100
DictionaryVariables
280
0
  1
1.4.4 @ 2026-09-02T18:08:40.596945+00:00
  0
ENDSEC
  0
EOF
